<svg width="22" height="20" viewBox="0 0 22 20" fill="none" xmlns="http://www.w3.org/2000/svg">
<rect width="22" height="20" fill="#E5E5E5"/>
<rect width="1280" height="1217" transform="translate(-440 -642)" fill="black"/>
<rect x="-240" y="-312" width="282" height="361" rx="10" fill="white"/>
<path d="M20.2991 10.3009C22.567 7.9404 22.567 4.10751 20.2991 1.77038C18.0311 -0.590126 14.3486 -0.590126 12.0806 1.77038L10.9804 2.93894L9.88007 1.79375C7.61215 -0.590126 3.92957 -0.590126 1.6841 1.77038C0.583823 2.91557 0 4.43471 0 6.04733C0 7.65995 0.606277 9.17908 1.6841 10.3243L10.9804 20L20.2991 10.3009ZM1.4371 6.04733C1.4371 4.83202 1.8862 3.7102 2.71702 2.86883C3.5703 1.98072 4.67058 1.53666 5.77086 1.53666C6.87114 1.53666 7.97142 1.98072 8.8247 2.86883L10.9804 5.0891L13.136 2.84546C14.8201 1.09261 17.582 1.09261 19.2437 2.84546C20.0521 3.68682 20.5236 4.80865 20.5236 6.02396C20.5236 7.23926 20.0745 8.36109 19.2437 9.20245L10.9804 17.8265L2.71702 9.22583C1.90865 8.36109 1.4371 7.23926 1.4371 6.04733Z" fill="black"/>
</svg>
